<svg xmlns="http://www.w3.org/2000/svg" viewBox="0 0 276 53"><g fill="none"><path d="M13.007 36.172c5.258 0 8.024-3.818 8.024-8.455 0-4.638-2.766-8.456-8.024-8.456-4.705 0-8.024 3.818-8.024 8.456 0 4.637 3.32 8.455 8.024 8.455zM0 14.897h4.983l.498 2.182.331.273.277-.273c1.66-1.636 4.427-2.727 7.194-2.727 7.196 0 13.285 5.455 13.285 13.365S20.48 41.081 13.283 41.081c-2.713 0-5.534-1.09-7.194-2.727l-.277-.273-.33.273v13.114H0v-36.57zm38.165 21.325c1.823 0 3.438-.564 4.793-1.694 1.406-1.181 2.084-2.773 2.084-4.878v-.565h-4.74c-3.335 0-5.419 1.54-5.419 4.005 0 1.849 1.145 3.132 3.282 3.132m2.344-11.604h4.533v-1.13c0-3.081-2.137-4.519-5.106-4.519-2.396 0-4.01 1.13-4.897 3.44l-4.949-1.027c1.094-4.365 4.896-7.139 9.898-7.139 6.982 0 10.473 3.391 10.473 10.22v16.072h-4.585l-.523-3.388c-1.822 2.515-4.532 3.8-8.125 3.8-4.638 0-8.077-2.722-8.077-7.857 0-5.289 4.534-8.472 11.358-8.472m15.059-9.721h4.979l.555 2.183.278.272.276-.272c1.106-1.637 3.874-2.728 6.088-2.728 6.64 0 10.514 4.364 10.514 10.364v15.82h-5.534v-15.82c-.166-3.491-1.883-5.455-5.534-5.455-3.267 0-5.977 2.617-6.088 5.782v15.494h-5.534v-25.64zm39.82 4.364c-5.259 0-8.081 3.818-8.081 8.456 0 4.637 2.822 8.455 8.081 8.455 4.705 0 8.023-3.818 8.023-8.455 0-4.638-3.318-8.456-8.023-8.456zm13.007 21.275h-4.984l-.551-2.182-.278-.273-.276.273c-1.66 1.636-4.428 2.727-7.194 2.727-7.198 0-13.286-5.455-13.286-13.364 0-7.91 6.088-13.365 13.286-13.365 2.712 0 5.534 1.091 7.194 2.727l.276.273.278-.273V3.395h5.535v37.141zm13.413-4.314c1.823 0 3.438-.564 4.793-1.694 1.406-1.181 2.084-2.773 2.084-4.878v-.565h-4.741c-3.334 0-5.418 1.54-5.418 4.005 0 1.849 1.144 3.132 3.282 3.132m2.345-11.604h4.532v-1.13c0-3.081-2.137-4.519-5.106-4.519-2.396 0-4.011 1.13-4.897 3.44l-4.95-1.027c1.095-4.365 4.897-7.139 9.899-7.139 6.982 0 10.473 3.391 10.473 10.22v16.072h-4.585l-.523-3.388c-1.822 2.515-4.533 3.8-8.125 3.8-4.638 0-8.078-2.722-8.078-7.857 0-5.289 4.535-8.472 11.36-8.472m12.73 28.229L146.134 0h129.862l-9.183 52.847z" fill="#FFF"></path><path d="M155.28 15.08h4.479l-.708 4.008h.109c.17-.362.524-.813 1.063-1.355.54-.542 1.202-1.055 1.98-1.543.78-.488 1.67-.902 2.675-1.246a9.84 9.84 0 013.21-.514c1.882 0 3.397.398 4.537 1.191 1.138.795 1.977 1.986 2.514 3.575 1.1-1.589 2.465-2.78 4.099-3.575 1.634-.793 3.215-1.19 4.743-1.19 1.955 0 3.498.324 4.63.974 1.129.65 1.956 1.508 2.48 2.571.522 1.067.796 2.276.826 3.628a21.496 21.496 0 01-.34 4.2l-2.635 14.947h-4.803l2.523-14.298a20.71 20.71 0 00.308-2.816c.037-.903-.083-1.697-.351-2.383a3.463 3.463 0 00-1.362-1.653c-.64-.415-1.543-.623-2.717-.623-2.313 0-4.093.724-5.342 2.166-1.251 1.446-2.076 3.305-2.48 5.58l-2.47 14.027h-4.801l2.368-13.432c.217-1.226.352-2.346.404-3.357.055-1.01-.041-1.887-.282-2.627a3.244 3.244 0 00-1.295-1.734c-.62-.415-1.516-.623-2.69-.623-.854 0-1.71.173-2.57.516a7.452 7.452 0 00-2.38 1.543c-.725.687-1.361 1.563-1.904 2.627-.544 1.064-.941 2.32-1.195 3.764l-2.352 13.323h-4.798l4.527-25.67zm55.678 13.324c-1.138 0-2.313.062-3.526.188a15.192 15.192 0 00-3.383.732c-1.043.36-1.93.867-2.668 1.517-.736.65-1.194 1.48-1.373 2.49-.26 1.482.04 2.547.904 3.196.862.649 2.13.975 3.801.975 1.314 0 2.474-.225 3.48-.677 1.004-.451 1.854-1.037 2.551-1.76a8.682 8.682 0 001.651-2.41c.405-.885.684-1.761.835-2.627l.29-1.624h-2.562zM199.206 18.22a16.68 16.68 0 015.194-2.842c1.89-.632 3.723-.95 5.5-.95 1.85 0 3.4.237 4.651.704 1.251.47 2.233 1.103 2.946 1.897a5.966 5.966 0 011.411 2.735c.227 1.03.241 2.104.046 3.223l-2.31 13.104c-.162.905-.29 1.735-.388 2.494-.098.756-.173 1.48-.22 2.166h-4.267c.122-1.3.296-2.6.526-3.9h-.108c-1.358 1.66-2.829 2.835-4.406 3.52-1.58.686-3.328 1.03-5.248 1.03-1.175 0-2.264-.163-3.275-.488-1.009-.324-1.858-.813-2.542-1.462-.685-.651-1.175-1.453-1.468-2.41-.294-.956-.329-2.067-.105-3.331.293-1.661.901-3.05 1.827-4.17.925-1.118 2.083-2.033 3.468-2.736 1.387-.704 2.953-1.21 4.696-1.515a31.63 31.63 0 015.494-.461h3.52l.191-1.083a5.18 5.18 0 00-.028-1.95 4.28 4.28 0 00-.81-1.76c-.407-.523-.955-.94-1.647-1.245-.694-.307-1.556-.461-2.585-.461-.926 0-1.75.09-2.476.27a12.55 12.55 0 00-2.014.678 10.59 10.59 0 00-1.714.947c-.525.362-1.029.704-1.514 1.03l-2.345-3.034zm27.062-3.14h4.8l-.696 3.953h.106a8.94 8.94 0 011.61-1.868 11.077 11.077 0 012.038-1.437c.728-.395 1.504-.71 2.33-.946a8.77 8.77 0 012.407-.352c.782 0 1.475.108 2.076.325l-1.14 5.253a12.044 12.044 0 00-1.125-.27 6.164 6.164 0 00-1.154-.109c-2.347 0-4.26.67-5.74 2.004-1.481 1.336-2.47 3.412-2.965 6.228l-2.274 12.89h-4.798l4.525-25.67zm35.737 4.225h-6.88l-2.056 11.644a44.697 44.697 0 00-.322 2.139c-.089.704-.067 1.336.067 1.895.13.56.408 1.01.828 1.354.42.344 1.09.515 2.013.515a10.6 10.6 0 001.79-.162 5.974 5.974 0 001.76-.597l-.783 4.441c-.627.326-1.404.55-2.333.677-.93.127-1.645.191-2.142.191-1.848 0-3.232-.263-4.154-.786-.92-.523-1.549-1.201-1.882-2.031-.334-.83-.455-1.76-.36-2.789.091-1.029.228-2.066.415-3.114l2.358-13.377h-5.548l.747-4.226h5.544l1.272-7.202h4.801l-1.27 7.202h6.88l-.745 4.226z" fill="#D71A65"></path></g></svg>